<svg xmlns="http://www.w3.org/2000/svg" enable-background="new 0 0 1364 960" viewBox="0 0 1364 960"><path fill="#bab8ff" d="M131.822,858.137c4.115,2.685,10.798,6.24,23.381,8.265c7.725,1.216,18.421,2.964,31.872,0.134  c0.581-0.123,1.605-0.33,2.924-0.687c0.065-0.012,0.141-0.026,0.203-0.048c0.121-0.019,0.248-0.052,0.378-0.074  c0.447-0.11,0.921-0.241,1.43-0.338c9.865-2.709,30.193-9.987,36.868-26.979c0.4-0.971,5.159-13.366-0.068-18.042  c-6.595-5.781-24.065,4.484-26.122,1.079c-1.032-1.73,3.018-4.717,6.397-9.756c7.699-11.251,10.357-29.923,1.431-38.043  c-4.188-3.885-11.164-5.501-17.188-3.534c-9.825,3.087-11.844,18.001-13.059,17.698c-1.738-0.513,10.332-27.153-0.6-39.723  c-3.857-4.393-10.874-7.416-15.609-5.495c-6.935,2.829-5.959,15.24-9.531,15.53c-3.786,0.307-4.234-13.468-15.686-23.593  c-2.923-2.547-9.767-8.576-17.636-7.062c-6.831,1.244-12.43,7.498-13.445,14.114c-0.902,6.114,2.331,10.967,3.26,12.272  c5.884,8.571,14.381,6.606,28.03,16.805c4.773,3.542,9.546,8.111,8.624,9.9c-0.768,1.273-4.069-0.207-9.279,1.014  c-0.11,0.015-0.275,0.039-0.491,0.114c-1.584,0.392-7.22,1.819-10.022,6.46c-0.146,0.178-3.075,5.279-0.851,9.099  c1.112,1.992,3.172,2.796,4.057,3.18c8.888,3.685,18.785,10.946,18.223,12.413c-0.596,1.699-14.872-4.378-18.688,0.271  c-3.165,3.867,2.66,12.932,3.416,14.1c6.338,9.706,17.003,13.683,16.587,14.441c-0.38,0.63-7.93-4.61-17.243-3.526  c-4.339,0.477-11.354,2.547-12.348,6.776C119.756,850.087,128.242,855.761,131.822,858.137z" class="colorBAB8FF svgShape"/><path fill="#ffffff" d="M147.338,828.082c1.378-1.624,3.745-1.331,5.533-0.646c2.255,0.863,4.247,2.303,6.034,3.905  c3.759,3.371,6.771,7.708,11.249,10.211c2.264,1.265,4.822,1.997,7.42,1.685c-2.538-7.532-4.178-15.37-5.7-23.161  c-0.57-2.915-1.131-5.842-1.726-8.764c-5.503-5.801-14.527-5.313-20.741-10.039c-1.653-1.257-2.996-2.85-3.804-4.772  c-0.136-0.323,0.379-0.502,0.515-0.18c1.549,3.682,5.118,5.844,8.677,7.278c3.523,1.418,7.28,2.187,10.724,3.813  c1.621,0.765,3.131,1.738,4.434,2.965c-1.627-7.885-3.543-15.719-6.673-23.153c-3.793-9.001-9.383-17.524-17.372-23.327  c-1.004-0.723-2.038-1.402-3.099-2.024c-0.295-0.185-0.062-0.672,0.241-0.5c8.219,4.878,14.307,12.546,18.575,20.989  c0.729,1.438,1.388,2.902,2.016,4.378c0.011-0.061,0.035-0.121,0.098-0.167c3.9-2.864,3.647-8.179,3.008-12.441  c-0.35-2.331-0.802-4.666-0.763-7.033c0.031-1.966,0.344-4.08,1.751-5.562c0.241-0.253,0.657,0.099,0.415,0.354  c-1.645,1.731-1.722,4.409-1.587,6.656c0.147,2.446,0.683,4.846,0.96,7.277c0.456,3.996,0.032,8.623-3.474,11.198  c-0.113,0.083-0.221,0.048-0.303-0.022c3.506,8.335,5.545,17.217,7.308,26.074c0.978,4.909,1.899,9.842,2.958,14.74  c5.667-1.829,10.598-6.06,13.405-11.295c1.534-2.859,2.202-5.897,2.447-9.114c0.266-3.492,0.212-7.066,1.292-10.438  c1.066-3.328,3.418-6.445,6.964-7.289c0.338-0.08,0.521,0.433,0.18,0.515c-3.571,0.851-5.823,4.066-6.776,7.436  c-0.977,3.455-0.86,7.076-1.185,10.621c-0.281,3.068-1.037,5.97-2.525,8.68c-1.382,2.519-3.232,4.767-5.388,6.663  c-2.411,2.12-5.233,3.785-8.296,4.762c1.303,5.96,2.827,11.862,4.972,17.588c1.484,3.971,3.292,7.863,5.468,11.521  c3.112-8.253,12.533-11.202,18.167-17.299c1.649-1.784,2.971-3.85,3.617-6.208c0.092-0.336,0.628-0.235,0.535,0.105  c-2.372,8.666-11.904,11.907-17.779,17.679c-1.775,1.744-3.253,3.756-4.11,6.107c-0.026,0.07-0.074,0.103-0.123,0.126  c1.675,2.751,3.557,5.367,5.704,7.753c-0.13,0.023-0.257,0.055-0.378,0.074c-0.062,0.021-0.137,0.036-0.203,0.048  c-3.65-4.096-6.601-8.84-8.954-13.851c-1.258-2.685-2.337-5.437-3.296-8.229c-4.379,0.587-8.463-1.678-11.639-4.488  c-3.687-3.264-6.615-7.414-10.847-10.039c-1.952-1.211-5.618-3.037-7.51-0.806C147.525,828.703,147.111,828.349,147.338,828.082z" class="colorFFF svgShape"/><path fill="#fc8cff" d="M252.191,862.448c-2.637,1.72-6.918,3.998-14.98,5.296c-4.95,0.779-11.802,1.899-20.42,0.086  c-0.372-0.079-1.029-0.212-1.874-0.44c-0.042-0.007-0.09-0.017-0.13-0.031c-0.077-0.012-0.159-0.033-0.242-0.048  c-0.286-0.07-0.59-0.154-0.916-0.217c-6.321-1.735-19.345-6.398-23.621-17.285c-0.256-0.622-3.305-8.564,0.044-11.56  c4.225-3.704,15.419,2.873,16.736,0.691c0.661-1.109-1.934-3.022-4.099-6.25c-4.933-7.208-6.636-19.171-0.917-24.374  c2.683-2.489,7.153-3.524,11.012-2.264c6.295,1.978,7.588,11.533,8.367,11.339c1.114-0.329-6.619-17.397,0.385-25.45  c2.471-2.815,6.967-4.751,10.001-3.521c4.443,1.812,3.818,9.764,6.106,9.95c2.426,0.196,2.712-8.629,10.05-15.116  c1.873-1.632,6.258-5.495,11.299-4.525c4.377,0.797,7.964,4.804,8.614,9.043c0.578,3.917-1.494,7.027-2.089,7.862  c-3.77,5.491-9.214,4.232-17.959,10.767c-3.058,2.269-6.116,5.197-5.525,6.343c0.492,0.816,2.607-0.133,5.945,0.65  c0.071,0.01,0.176,0.025,0.315,0.073c1.015,0.251,4.626,1.165,6.421,4.139c0.093,0.114,1.97,3.383,0.545,5.83  c-0.712,1.276-2.032,1.792-2.6,2.037c-5.695,2.361-12.035,7.013-11.675,7.953c0.382,1.088,9.528-2.805,11.973,0.174  c2.028,2.478-1.705,8.286-2.188,9.034c-4.061,6.219-10.894,8.766-10.627,9.252c0.243,0.403,5.081-2.954,11.047-2.259  c2.78,0.305,7.275,1.632,7.911,4.341C259.922,857.29,254.485,860.926,252.191,862.448z" class="colorFC8CFF svgShape"/><path fill="#ffffff" d="M242.251,843.192c-0.883-1.041-2.399-0.853-3.545-0.414c-1.445,0.553-2.721,1.475-3.866,2.502  c-2.409,2.16-4.338,4.938-7.208,6.542c-1.45,0.81-3.089,1.279-4.754,1.08c1.626-4.826,2.677-9.848,3.652-14.839  c0.365-1.868,0.725-3.743,1.106-5.615c3.526-3.717,9.307-3.404,13.289-6.432c1.059-0.806,1.919-1.826,2.437-3.057  c0.087-0.207-0.243-0.322-0.33-0.115c-0.992,2.359-3.279,3.744-5.56,4.663c-2.257,0.909-4.664,1.401-6.871,2.443  c-1.039,0.49-2.006,1.114-2.84,1.9c1.042-5.052,2.27-10.071,4.276-14.834c2.43-5.767,6.012-11.228,11.13-14.945  c0.643-0.463,1.306-0.898,1.985-1.297c0.189-0.119,0.039-0.43-0.155-0.321c-5.266,3.125-9.167,8.038-11.901,13.447  c-0.467,0.921-0.889,1.859-1.292,2.805c-0.007-0.039-0.023-0.077-0.063-0.107c-2.499-1.835-2.337-5.24-1.927-7.971  c0.224-1.493,0.514-2.99,0.489-4.506c-0.02-1.26-0.22-2.614-1.122-3.563c-0.155-0.162-0.421,0.064-0.266,0.227  c1.054,1.109,1.103,2.825,1.017,4.264c-0.094,1.567-0.438,3.104-0.615,4.662c-0.292,2.56-0.021,5.524,2.226,7.174  c0.072,0.053,0.142,0.031,0.194-0.014c-2.246,5.34-3.552,11.031-4.682,16.705c-0.627,3.145-1.216,6.306-1.895,9.444  c-3.631-1.172-6.79-3.883-8.588-7.236c-0.983-1.832-1.411-3.778-1.568-5.839c-0.17-2.238-0.136-4.527-0.827-6.687  c-0.683-2.132-2.19-4.129-4.461-4.67c-0.216-0.052-0.334,0.278-0.115,0.33c2.288,0.545,3.731,2.605,4.341,4.764  c0.626,2.214,0.551,4.533,0.759,6.805c0.18,1.965,0.665,3.825,1.618,5.562c0.885,1.614,2.07,3.054,3.452,4.269  c1.545,1.358,3.353,2.425,5.315,3.051c-0.835,3.818-1.812,7.6-3.185,11.269c-0.951,2.544-2.109,5.038-3.503,7.382  c-1.994-5.287-8.03-7.177-11.639-11.083c-1.056-1.143-1.904-2.467-2.317-3.978c-0.059-0.215-0.402-0.151-0.343,0.067  c1.52,5.552,7.627,7.629,11.391,11.327c1.137,1.117,2.084,2.407,2.633,3.913c0.016,0.045,0.047,0.066,0.079,0.081  c-1.073,1.763-2.279,3.439-3.655,4.968c0.084,0.014,0.165,0.035,0.242,0.048c0.04,0.014,0.088,0.023,0.13,0.031  c2.338-2.624,4.229-5.664,5.737-8.874c0.806-1.721,1.498-3.483,2.112-5.272c2.805,0.376,5.422-1.075,7.457-2.876  c2.362-2.091,4.238-4.75,6.95-6.432c1.25-0.776,3.599-1.946,4.811-0.517C242.131,843.59,242.396,843.363,242.251,843.192z" class="colorFFF svgShape"/><path fill="#bab8ff" d="M1220.773,857.765c-4.115,2.685-10.798,6.24-23.381,8.265c-7.725,1.216-18.421,2.964-31.872,0.134  c-0.581-0.123-1.605-0.33-2.924-0.687c-0.065-0.012-0.141-0.026-0.203-0.048c-0.121-0.019-0.248-0.052-0.378-0.074  c-0.447-0.11-0.921-0.241-1.43-0.338c-9.865-2.709-30.193-9.987-36.868-26.979c-0.4-0.971-5.159-13.366,0.068-18.042  c6.595-5.781,24.065,4.484,26.122,1.079c1.032-1.73-3.018-4.717-6.397-9.756c-7.699-11.251-10.357-29.923-1.431-38.043  c4.188-3.885,11.164-5.501,17.188-3.534c9.825,3.087,11.844,18.001,13.059,17.698c1.738-0.513-10.332-27.153,0.6-39.723  c3.857-4.393,10.874-7.416,15.609-5.495c6.936,2.829,5.959,15.24,9.531,15.53c3.786,0.307,4.234-13.468,15.686-23.593  c2.923-2.547,9.767-8.576,17.635-7.062c6.831,1.244,12.43,7.498,13.445,14.114c0.902,6.114-2.331,10.967-3.26,12.272  c-5.884,8.571-14.381,6.606-28.03,16.805c-4.773,3.542-9.547,8.111-8.624,9.9c0.768,1.273,4.069-0.207,9.279,1.014  c0.11,0.015,0.275,0.039,0.491,0.114c1.584,0.392,7.22,1.819,10.021,6.46c0.146,0.178,3.076,5.28,0.851,9.099  c-1.112,1.992-3.172,2.796-4.057,3.18c-8.889,3.685-18.785,10.946-18.223,12.413c0.596,1.699,14.872-4.378,18.688,0.271  c3.165,3.867-2.66,12.932-3.416,14.1c-6.338,9.706-17.003,13.683-16.587,14.441c0.38,0.63,7.93-4.61,17.243-3.526  c4.339,0.477,11.354,2.547,12.348,6.776C1232.839,849.715,1224.353,855.389,1220.773,857.765z" class="colorBAB8FF svgShape"/><path fill="#ffffff" d="M1205.257,827.71c-1.378-1.624-3.745-1.332-5.533-0.646c-2.256,0.863-4.247,2.303-6.034,3.905  c-3.759,3.371-6.771,7.708-11.249,10.211c-2.264,1.265-4.822,1.997-7.42,1.685c2.538-7.532,4.178-15.37,5.7-23.161  c0.57-2.915,1.131-5.842,1.726-8.764c5.503-5.801,14.527-5.313,20.741-10.039c1.653-1.257,2.996-2.85,3.804-4.772  c0.136-0.323-0.379-0.502-0.515-0.18c-1.549,3.682-5.118,5.844-8.677,7.278c-3.523,1.418-7.28,2.187-10.724,3.813  c-1.621,0.765-3.131,1.738-4.433,2.965c1.627-7.885,3.543-15.719,6.673-23.153c3.793-9.001,9.383-17.524,17.372-23.327  c1.004-0.723,2.038-1.402,3.099-2.024c0.296-0.185,0.062-0.672-0.241-0.5c-8.219,4.878-14.307,12.546-18.575,20.989  c-0.729,1.438-1.388,2.902-2.016,4.378c-0.011-0.061-0.036-0.121-0.099-0.167c-3.9-2.864-3.647-8.179-3.008-12.441  c0.35-2.331,0.802-4.666,0.763-7.033c-0.031-1.966-0.344-4.08-1.751-5.561c-0.241-0.253-0.657,0.099-0.416,0.354  c1.645,1.731,1.722,4.409,1.587,6.656c-0.147,2.446-0.683,4.846-0.961,7.277c-0.456,3.996-0.032,8.622,3.474,11.198  c0.113,0.083,0.221,0.048,0.303-0.022c-3.506,8.335-5.545,17.217-7.308,26.074c-0.978,4.909-1.899,9.842-2.957,14.74  c-5.667-1.829-10.598-6.06-13.405-11.295c-1.534-2.859-2.202-5.897-2.447-9.114c-0.266-3.492-0.212-7.066-1.291-10.438  c-1.066-3.328-3.418-6.445-6.964-7.289c-0.338-0.08-0.521,0.433-0.18,0.515c3.571,0.851,5.823,4.066,6.776,7.436  c0.977,3.455,0.86,7.076,1.185,10.621c0.282,3.068,1.037,5.97,2.525,8.681c1.382,2.519,3.232,4.767,5.388,6.663  c2.411,2.12,5.233,3.785,8.296,4.763c-1.303,5.96-2.828,11.861-4.972,17.588c-1.484,3.971-3.292,7.863-5.468,11.521  c-3.112-8.253-12.533-11.202-18.167-17.299c-1.649-1.784-2.971-3.85-3.617-6.208c-0.092-0.336-0.628-0.235-0.535,0.105  c2.371,8.666,11.904,11.907,17.779,17.679c1.775,1.744,3.253,3.756,4.11,6.107c0.026,0.07,0.074,0.103,0.123,0.126  c-1.675,2.752-3.557,5.367-5.704,7.754c0.13,0.023,0.257,0.055,0.378,0.074c0.062,0.021,0.137,0.036,0.203,0.048  c3.65-4.096,6.601-8.84,8.954-13.851c1.258-2.685,2.337-5.437,3.296-8.229c4.379,0.587,8.463-1.678,11.639-4.488  c3.687-3.264,6.615-7.414,10.847-10.039c1.952-1.211,5.618-3.037,7.51-0.806C1205.07,828.331,1205.484,827.977,1205.257,827.71z" class="colorFFF svgShape"/><path fill="#fc8cff" d="M1100.404,862.076c2.636,1.72,6.918,3.998,14.98,5.296c4.95,0.779,11.802,1.899,20.42,0.086  c0.372-0.079,1.028-0.212,1.874-0.44c0.042-0.007,0.09-0.017,0.13-0.031c0.077-0.012,0.159-0.033,0.242-0.048  c0.286-0.07,0.59-0.154,0.916-0.217c6.321-1.736,19.344-6.398,23.621-17.285c0.256-0.622,3.305-8.564-0.044-11.56  c-4.225-3.704-15.419,2.873-16.736,0.691c-0.661-1.109,1.934-3.022,4.099-6.25c4.933-7.208,6.636-19.171,0.917-24.374  c-2.683-2.489-7.153-3.524-11.012-2.264c-6.295,1.978-7.588,11.533-8.367,11.339c-1.114-0.329,6.62-17.397-0.385-25.451  c-2.471-2.815-6.967-4.751-10.001-3.521c-4.443,1.812-3.818,9.764-6.106,9.95c-2.426,0.196-2.713-8.629-10.05-15.116  c-1.873-1.632-6.258-5.495-11.299-4.525c-4.377,0.797-7.964,4.804-8.614,9.043c-0.578,3.917,1.494,7.027,2.089,7.862  c3.77,5.491,9.214,4.232,17.959,10.767c3.058,2.269,6.116,5.197,5.525,6.343c-0.492,0.816-2.607-0.133-5.945,0.65  c-0.071,0.01-0.176,0.025-0.315,0.073c-1.015,0.251-4.625,1.165-6.421,4.139c-0.093,0.114-1.97,3.383-0.545,5.83  c0.713,1.276,2.032,1.792,2.6,2.037c5.695,2.361,12.035,7.013,11.675,7.953c-0.382,1.088-9.528-2.805-11.973,0.174  c-2.028,2.478,1.704,8.286,2.188,9.034c4.061,6.219,10.894,8.766,10.627,9.252c-0.243,0.403-5.081-2.954-11.047-2.259  c-2.78,0.305-7.275,1.632-7.911,4.341C1092.672,856.918,1098.11,860.553,1100.404,862.076z" class="colorFC8CFF svgShape"/><path fill="#ffffff" d="M1110.344,842.819c0.883-1.041,2.399-0.853,3.545-0.414c1.445,0.553,2.721,1.475,3.866,2.502  c2.408,2.16,4.338,4.938,7.208,6.542c1.45,0.81,3.089,1.279,4.754,1.08c-1.626-4.826-2.677-9.848-3.652-14.839  c-0.365-1.868-0.725-3.743-1.106-5.615c-3.525-3.717-9.307-3.404-13.289-6.432c-1.059-0.806-1.919-1.826-2.437-3.057  c-0.087-0.207,0.243-0.322,0.33-0.115c0.992,2.359,3.279,3.744,5.56,4.663c2.257,0.909,4.664,1.401,6.871,2.443  c1.039,0.49,2.006,1.114,2.841,1.9c-1.042-5.052-2.27-10.071-4.276-14.834c-2.43-5.767-6.012-11.228-11.13-14.945  c-0.643-0.463-1.306-0.898-1.985-1.297c-0.189-0.119-0.04-0.43,0.155-0.321c5.266,3.125,9.167,8.038,11.901,13.447  c0.467,0.921,0.889,1.859,1.291,2.805c0.007-0.039,0.023-0.077,0.063-0.107c2.499-1.835,2.337-5.24,1.927-7.971  c-0.224-1.493-0.514-2.99-0.489-4.506c0.02-1.26,0.22-2.614,1.122-3.563c0.155-0.162,0.421,0.064,0.266,0.227  c-1.054,1.109-1.103,2.825-1.017,4.264c0.094,1.567,0.438,3.104,0.615,4.662c0.292,2.56,0.021,5.524-2.226,7.174  c-0.072,0.053-0.142,0.031-0.194-0.014c2.246,5.34,3.552,11.031,4.682,16.705c0.627,3.145,1.217,6.306,1.895,9.444  c3.631-1.172,6.79-3.883,8.588-7.236c0.983-1.832,1.411-3.778,1.568-5.839c0.17-2.238,0.136-4.527,0.827-6.687  c0.683-2.132,2.19-4.129,4.462-4.67c0.216-0.051,0.334,0.278,0.115,0.33c-2.288,0.545-3.731,2.605-4.341,4.764  c-0.626,2.214-0.551,4.533-0.759,6.805c-0.18,1.965-0.664,3.825-1.617,5.562c-0.885,1.614-2.07,3.054-3.452,4.269  c-1.545,1.358-3.353,2.425-5.315,3.051c0.835,3.818,1.812,7.6,3.186,11.269c0.951,2.544,2.109,5.038,3.503,7.382  c1.994-5.287,8.03-7.177,11.639-11.083c1.056-1.143,1.904-2.467,2.317-3.978c0.059-0.215,0.402-0.151,0.343,0.067  c-1.519,5.552-7.627,7.629-11.391,11.327c-1.138,1.117-2.084,2.407-2.634,3.913c-0.017,0.045-0.047,0.066-0.079,0.081  c1.073,1.763,2.279,3.439,3.655,4.968c-0.084,0.014-0.165,0.035-0.242,0.048c-0.04,0.014-0.088,0.023-0.13,0.031  c-2.339-2.624-4.229-5.664-5.737-8.874c-0.806-1.721-1.497-3.483-2.112-5.272c-2.805,0.376-5.422-1.075-7.457-2.876  c-2.362-2.091-4.238-4.75-6.95-6.432c-1.251-0.776-3.599-1.946-4.812-0.517C1110.464,843.218,1110.199,842.991,1110.344,842.819z" class="colorFFF svgShape"/><path fill="#4642b8" d="M385.786 590.697c-39.625-2.973-80.624-5.233-117.57 12.058-17.949 8.4-33.986 20.219-51.189 29.956-17.47 9.889-36.052 17.705-55.314 23.355-21.59 6.332-43.848 9.852-66.33 10.578-5.851.189-5.877 9.305 0 9.116 39.372-1.271 78.179-10.928 113.49-28.417 17.805-8.818 33.974-20.326 51.228-30.097 17.941-10.16 37.033-16.414 57.578-18.49 22.653-2.289 45.474-.641 68.106 1.057C391.638 600.251 391.609 591.134 385.786 590.697L385.786 590.697zM1008.471 662.325c34.037 4.615 68.943 11.949 100.121 26.803 12.995 6.191 25.761 13.849 35.447 24.664 6.968 7.78 12.713 16.789 17.246 26.182 6.835 14.162 9.792 29.507 14.67 44.346 4.704 14.308 12.354 26.484 25.197 34.786 9.714 6.279 21.017 10.058 32.18 12.794 17.857 4.376 36.305 6.305 54.606 7.641 5.853.427 5.826-8.69 0-9.115-26.115-1.907-55.919-4.027-79.198-17.373-12.563-7.202-19.812-18.222-24.193-31.764-4.907-15.169-8.146-30.657-15.027-45.155-10.635-22.408-27.335-39.606-49.205-51.289-33.483-17.887-72.093-26.249-109.422-31.309C1005.158 652.758 1002.676 661.54 1008.471 662.325L1008.471 662.325z" class="color4642B8 svgShape"/><path fill="#685acc" d="M570.583 293.061h-77.296v-34.898l77.296-91.88h36.981v93.859h19.168v32.919h-19.168v28.543h-36.981V293.061zM570.583 260.143v-48.061l-40.842 48.061H570.583zM639.962 244.621c0-29.028 5.225-49.342 15.678-60.941 10.451-11.597 26.372-17.397 47.763-17.397 10.277 0 18.715 1.268 25.314 3.802 6.597 2.536 11.98 5.834 16.147 9.897 4.167 4.062 7.448 8.333 9.845 12.813 2.396 4.479 4.323 9.706 5.781 15.678 2.847 11.39 4.271 23.266 4.271 35.627 0 27.71-4.688 47.989-14.063 60.837-9.376 12.849-25.522 19.272-48.44 19.272-12.849 0-23.23-2.05-31.147-6.146-7.917-4.097-14.412-10.105-19.48-18.022-3.682-5.625-6.547-13.316-8.594-23.074C640.986 267.21 639.962 256.429 639.962 244.621zM682.047 244.726c0 19.446 1.719 32.728 5.157 39.846 3.438 7.119 8.42 10.678 14.949 10.678 4.305 0 8.037-1.51 11.198-4.531 3.159-3.021 5.485-7.795 6.98-14.324 1.492-6.527 2.24-16.702 2.24-30.522 0-20.278-1.719-33.908-5.157-40.888-3.438-6.979-8.594-10.469-15.47-10.469-7.016 0-12.084 3.56-15.209 10.678C683.61 212.312 682.047 225.489 682.047 244.726zM855.182 293.061h-77.296v-34.898l77.296-91.88h36.981v93.859h19.168v32.919h-19.168v28.543h-36.981V293.061zM855.182 260.143v-48.061l-40.842 48.061H855.182z" class="color685ACC svgShape"/><path fill="#897aeb" d="M628.608 110.979c0-6.536 1.821-11.625 5.462-15.266 3.642-3.642 8.712-5.463 15.212-5.463 6.664 0 11.798 1.789 15.403 5.367 3.605 3.577 5.408 8.589 5.408 15.034 0 4.68-.788 8.516-2.363 11.511-1.575 2.995-3.851 5.325-6.827 6.991-2.977 1.666-6.687 2.499-11.129 2.499-4.516 0-8.252-.72-11.211-2.158-2.959-1.438-5.357-3.714-7.196-6.827C629.527 119.554 628.608 115.659 628.608 110.979zM640.98 111.034c0 4.042.751 6.946 2.253 8.712 1.502 1.766 3.546 2.649 6.131 2.649 2.658 0 4.715-.865 6.172-2.595 1.456-1.729 2.185-4.833 2.185-9.313 0-3.768-.76-6.523-2.28-8.261-1.521-1.739-3.582-2.608-6.186-2.608-2.494 0-4.497.883-6.008 2.649C641.735 104.033 640.98 106.956 640.98 111.034zM674.653 116.55c0-4.424 1.492-8.07 4.479-10.937 2.985-2.868 7.018-4.302 12.098-4.302 5.808 0 10.196 1.684 13.163 5.053 2.385 2.712 3.578 6.053 3.578 10.023 0 4.46-1.48 8.115-4.438 10.964-2.959 2.85-7.051 4.275-12.276 4.275-4.661 0-8.43-1.183-11.307-3.551C676.418 125.144 674.653 121.302 674.653 116.55zM685.795 116.522c0 2.586.523 4.497 1.57 5.736 1.047 1.238 2.362 1.857 3.946 1.857 1.602 0 2.918-.61 3.946-1.83 1.028-1.22 1.543-3.177 1.543-5.871 0-2.513-.519-4.384-1.557-5.613-1.037-1.229-2.321-1.844-3.851-1.844-1.62 0-2.959.624-4.015 1.871C686.323 112.076 685.795 113.974 685.795 116.522zM713.379 142.004v-40.037h10.405v4.288c1.438-1.803 2.759-3.022 3.96-3.66 1.62-.856 3.414-1.284 5.38-1.284 3.878 0 6.878 1.484 8.999 4.452 2.121 2.968 3.182 6.636 3.182 11.005 0 4.825-1.157 8.508-3.469 11.047-2.312 2.54-5.234 3.81-8.766 3.81-1.711 0-3.273-.292-4.684-.874-1.411-.582-2.672-1.448-3.782-2.595v13.847H713.379zM724.521 116.55c0 2.294.482 3.997 1.448 5.107.965 1.11 2.185 1.666 3.659 1.666 1.293 0 2.376-.533 3.25-1.598.874-1.065 1.311-2.872 1.311-5.421 0-2.349-.455-4.074-1.366-5.176-.91-1.101-2.021-1.652-3.332-1.652-1.42 0-2.604.556-3.55 1.666C724.995 112.253 724.521 114.056 724.521 116.55zM748.664 122.914l11.033-1.038c.455 1.311 1.092 2.249 1.912 2.813.819.564 1.912.847 3.277.847 1.493 0 2.649-.318 3.469-.955.637-.473.956-1.063.956-1.772 0-.799-.419-1.418-1.256-1.854-.601-.31-2.194-.691-4.779-1.146-3.86-.672-6.541-1.295-8.043-1.869-1.502-.573-2.768-1.541-3.796-2.905-1.029-1.365-1.543-2.919-1.543-4.665 0-1.911.555-3.556 1.666-4.938 1.11-1.382 2.64-2.415 4.588-3.097 1.948-.682 4.561-1.023 7.838-1.023 3.459 0 6.012.264 7.66.792 1.648.528 3.022 1.348 4.124 2.458 1.101 1.11 2.016 2.613 2.745 4.506l-10.542 1.038c-.273-.929-.729-1.611-1.366-2.048-.874-.582-1.93-.874-3.168-.874-1.256 0-2.171.223-2.745.669-.574.445-.86.985-.86 1.622 0 .709.364 1.245 1.092 1.608.728.363 2.312.691 4.752.982 3.696.418 6.445 1 8.248 1.746 1.803.746 3.182 1.81 4.138 3.192.955 1.382 1.433 2.9 1.433 4.556 0 1.673-.505 3.302-1.515 4.884-1.011 1.582-2.604 2.842-4.779 3.779-2.176.936-5.139 1.405-8.89 1.405-5.298 0-9.072-.755-11.32-2.267C750.743 127.848 749.301 125.7 748.664 122.914zM803.475 90.933h11.88v9.121l-2.294 18.325h-7.346l-2.24-18.325V90.933zM803.884 121.166h11.088v9.804h-11.088V121.166z" class="color897AEB svgShape"/><path fill="#f1cccd" d="M967.464,515.814c0,0-4.163,21.235-12.725,35.887c-1.886,3.208-3.974,6.119-6.284,8.393  c-14.537,14.428-65.416,15.803-65.416,15.803c-7.509,9.917-21.426,11.661-27.247,5.173c-3.411-3.818,14.022-5.398,16.562-10.513  c0,0-8.649-2.902-6.268-6.235c1.363-1.904,9.504-1.958,17.113,0.48c18.716-8.491,29.459-9.527,47.911-17.8  c8.152-14.262,23.887-29.606,25.732-36.948L967.464,515.814z" class="colorF1CCCD svgShape"/><path fill="#fc9cff" d="M971.84,518.18c0,0-10.145,31.48-18.707,46.131l-21.338-20.682c16.809-29.432,23.498-32.722,30.656-37.119  L971.84,518.18z" class="colorFC9CFF svgShape"/><path fill="#4642b8" d="M951.762,456.266c1.354-7.775,10.197-13.246,17.738-8.985c2.878,1.626,5.758,3.223,8.847,4.398  c3.217,1.223,6.812,0.944,10.138,1.824c7.703,2.037,12.761,11.053,10.483,18.688c-1.265,4.242-4.441,8.359-3.23,12.615  c1.236,4.345,6.234,6.123,10.101,8.457c3.122,1.885,5.877,4.608,7.084,8.049c1.207,3.441,0.597,7.642-2.07,10.128  c-1.91,1.781-4.756,2.681-5.899,5.029c-1.414,2.904,0.521,6.234,2.208,8.988c1.687,2.754,3.116,6.538,0.987,8.966  c-1.735,1.979-4.861,1.798-7.393,1.081c-2.533-0.717-5.166-1.815-7.705-1.124c-2.725,0.743-4.499,3.322-6.893,4.822  c-2.736,1.715-6.249,1.923-9.347,1.012c-3.097-0.911-5.815-2.85-8.092-5.138c-5.134-5.161-3.593-14.205-8.521-19.563  c-8.952-9.734-6.704-27.356,4.13-35.914C964.33,479.599,949.277,470.521,951.762,456.266z" class="color4642B8 svgShape"/><path fill="#f1cccd" d="M972.944,741.741c1.127,11.809,1.481,22.288,1.231,31.927c-0.625,24.624-3.65,40.437-9.596,63.432  l-3.411,11.101l-9.701,4.535l1.832-15.578c0,0-6.348-47.851-9.227-81.651c-0.751-8.58-1.231-16.209-1.294-21.91  c-0.438-32.552,23.531-120.19,25.074-125.865l0.063-0.217l0.021-0.081l34.6-1.089C1016.181,673.348,994.848,685.949,972.944,741.741  z" class="colorF1CCCD svgShape"/><path fill="#f1cccd" d="M1041.256,851.906l-0.25-19.669c0,0-18.992-35.859-35.096-57.515c-3.827-5.185-7.404-9.697-10.41-13.005  c-21.498-23.594-43.225-150.448-43.225-150.448l31.7-2.906c27.526,26.886,24.949,67.616,29.319,107.218  c1.514,13.728,6.193,26.668,13.073,37.71c1.385,2.225,2.705,4.486,3.969,6.811c8.799,16.227,14.321,36.109,21.272,68.285  l5.316,9.119L1041.256,851.906z" class="colorF1CCCD svgShape"/><path fill="#4642b8" d="M954.49 603.856l44.897-8.541c45.926 46.245 16.245 99.738 30.452 144.159-28.013 4.602-48.09 16.008-99.514 3.735C932.315 680.918 944.086 662.151 954.49 603.856zM1058.549 839.165c.383 3.421 3.128 16.725 3.797 17.894l-3.224 1.6-4.782-10.294c0 0-4.073 2.646-5.144 6.963-1.072 4.317-1.539 7.971-6.68 10.207-5.142 2.236-12.673 5.966-13.332 2.461-.659-3.505 8.71-13.801 10.295-20.495 1.761-7.432 1.526-15.264 1.526-15.264 4.591.273 7.365-.687 10.601-3.85C1051.607 828.388 1058.166 835.744 1058.549 839.165zM967.488 849.586c-.791 3.35-2.685 16.802-2.447 18.128l-3.575.422-1.038-11.303c0 0-4.725 1.12-7.187 4.825-2.462 3.704-4.132 6.989-9.726 7.363-5.595.374-13.942 1.352-13.382-2.169.559-3.522 12.846-10.064 16.593-15.834 4.16-6.406 6.574-13.859 6.574-13.859 4.232 1.802 7.166 1.832 11.279-.057C964.579 837.1 968.279 846.236 967.488 849.586z" class="color4642B8 svgShape"/><path fill="#fb78ff" d="M949.021,620.797c12.66-50.41-11.205-77.37,5.664-107.955c0,0,0.003-0.078,0.081-0.075  c1.378-1.637,3.024-2.983,4.722-4.343c0.003-0.077,0.08-0.074,0.08-0.074c1.677-1.663,7.238-5.198,7.238-5.198l11.828-2.088  c0,0,18.492,3.973,25.226,13.602c17.344,24.801-1.901,72.702,10.605,99.848C1001.81,623.963,962,630.101,949.021,620.797z" class="colorFB78FF svgShape"/><path fill="#f1cccd" d="M978.634,501.065c-6.674,5.118-11.112,6.616-11.828,2.088l-0.591-8.321l-0.88-12.638l10.783,0.451  l1.44,10.47L978.634,501.065z" class="colorF1CCCD svgShape"/><path fill="#f0b4b4" d="M977.558,493.114c-1.283,0.729-2.871,1.29-4.614,1.763c-2.373,0.606-4.639,0.511-6.729-0.046l-0.88-12.638  l10.783,0.451L977.558,493.114z" class="colorF0B4B4 svgShape"/><path fill="#f1cccd" d="M959.2,463.358c0,0-4.205,26.745,7.769,27.785c11.973,1.04,13.353-12.754,13.353-12.754  s5.989-4.395,3.868-8.355c-2.121-3.96-7.597,0.738-7.597,0.738C970.378,472.734,964.546,470.642,959.2,463.358z" class="colorF1CCCD svgShape"/><path fill="#8480ff" d="M1018.933,619.078l-51.241-6.596c-0.815-0.105-1.562,0.471-1.667,1.286l-7.938,61.665  c-0.105,0.816,0.471,1.562,1.286,1.667l51.241,6.596c9.097,1.171,17.42-5.254,18.591-14.351l4.078-31.676  C1034.454,628.573,1028.029,620.249,1018.933,619.078z" class="color8480FF svgShape"/><path fill="#6b67eb" d="M967.693,612.483l24.679,3.177l-4.935,38.338c-1.428,11.097,6.409,21.25,17.506,22.679l19.323,2.487  c-3.503,3.38-8.447,5.203-13.651,4.533l-51.241-6.596c-0.815-0.105-1.391-0.851-1.286-1.666l7.938-61.665  C966.131,612.954,966.877,612.378,967.693,612.483z" class="color6B67EB svgShape"/><path fill="#8480ff" d="M982.911,619.641c0.173-1.688,0.279-3.362,0.296-5.026c0.042-1.003,0.043-2.033-0.002-3.047  c0.002-0.525-0.015-1.075-0.034-1.604c-0.019-0.024-0.016-0.046-0.011-0.089c-0.038-0.553-0.077-1.106-0.118-1.637  c-0.164-2.301-0.439-4.595-0.851-6.84c-0.095-0.45-0.169-0.898-0.265-1.348c-0.105-0.54-0.214-1.058-0.342-1.601  c-0.236-1.06-0.516-2.127-0.797-3.171c-0.282-1.044-0.61-2.074-0.959-3.104c-0.152-0.524-0.349-1.032-0.526-1.536  c-0.176-0.505-0.374-1.012-0.571-1.521c-0.176-0.505-0.376-0.991-0.596-1.501c-0.197-0.508-0.42-0.997-0.642-1.486  c-0.644-1.464-1.354-2.936-2.114-4.349c-0.281-0.54-0.565-1.059-0.871-1.581c-0.5-0.876-1.005-1.729-1.551-2.59  c-1.239-1.957-2.572-3.86-4.003-5.688c-1.227-1.539-2.502-3.04-3.831-4.461c-0.481-0.522-0.987-1.025-1.488-1.55  c-0.468-0.455-0.935-0.91-1.424-1.367c-0.39-0.38-0.782-0.736-1.196-1.097c-0.097-0.1-0.175-0.175-0.277-0.232l0.003-0.022  c-8.223-7.306-18.336-12.685-29.65-15.216c-2.045-0.46-4.123-0.837-6.236-1.109l-72.58-9.343  c-7.762-0.999-14.869,4.486-15.869,12.249l-19.549,151.864c-0.078,0.604-0.115,1.235-0.104,1.829  c-0.003,0.876,0.083,1.742,0.239,2.573c0.153,0.853,0.377,1.671,0.692,2.456c0.293,0.784,0.655,1.553,1.092,2.245  c0.198,0.333,0.418,0.668,0.662,0.984c-0.006,0.043,0.035,0.07,0.054,0.095c0.185,0.265,0.395,0.511,0.604,0.757  c0.073,0.118,0.169,0.219,0.247,0.295c0.25,0.273,0.5,0.546,0.774,0.801c0.252,0.252,0.527,0.506,0.825,0.742  c0.435,0.363,0.898,0.685,1.385,0.99c0.261,0.187,0.546,0.355,0.834,0.501c0.022,0.003,0.022,0.003,0.022,0.003  c0.368,0.201,0.718,0.378,1.092,0.536c0.539,0.245,1.082,0.446,1.654,0.607c0.275,0.081,0.571,0.161,0.87,0.222  c0.426,0.099,0.854,0.175,1.307,0.234l72.58,9.343c2.113,0.272,4.218,0.434,6.313,0.506c34.108,1.19,64.153-23.789,68.599-58.332  l6.081-47.244C982.771,621.069,982.841,620.356,982.911,619.641z" class="color8480FF svgShape"/><path fill="#6b67eb" d="M816.753,703.468c0.028,3.003,0.918,5.878,2.685,8.258c2.304,9.277,76.9,18.125,84.459,17.733  c75.16-3.898,77.436-57.749,79.274-119.496c0.53-17.784-9.081-34.999-22.431-46.771l-0.003,0.022  c18.704,19.473,10.508,57.849,6.525,92.032C957.499,739.043,872.917,708.922,816.753,703.468z" class="color6B67EB svgShape"/><path fill="#8480ff" d="M906.862 533.108c-9.631-1.24-18.442 5.562-19.682 15.193l-21.948 170.5c-1.24 9.63 5.562 18.443 15.193 19.682 9.631 1.24 18.442-5.562 19.682-15.193l21.948-170.5C923.294 543.159 916.492 534.347 906.862 533.108zM835.634 523.939c-9.631-1.24-18.442 5.562-19.682 15.193l-21.948 170.5c-1.24 9.63 5.562 18.442 15.193 19.682 9.63 1.24 18.442-5.562 19.682-15.193l21.948-170.5C852.066 533.99 845.264 525.178 835.634 523.939z" class="color8480FF svgShape"/><rect width="9.571" height="181.485" x="868.16" y="540.927" fill="#6b67eb" transform="rotate(-172.658 872.96 631.664)" class="color6B67EB svgShape"/><rect width="9.571" height="181.485" x="839.12" y="537.189" fill="#6b67eb" transform="rotate(-172.658 843.919 627.926)" class="color6B67EB svgShape"/><path fill="#6b67eb" d="M921.641,546.455l-23.168,179.982l3.213,0.414c2.113,0.272,4.218,0.434,6.313,0.507l23.091-179.38  c-2.045-0.46-4.123-0.837-6.236-1.109L921.641,546.455z" class="color6B67EB svgShape"/><path fill="#f1cccd" d="M1001.931,544.833c0,0-11.839,18.96-23.413,30.076c-2.772,2.639-5.507,4.825-8.07,6.22  c-17.756,9.644-61.75,9.564-61.75,9.564c-14.993,7.176-28.882,5.064-32.971,0.398c-7.252-8.355,16.991-1.019,18.402-6.795  c0,0-10.546-1.633-7.721-5.796c2.063-3.039,18.89-0.558,18.89-0.558c27.926-6.648,34.218-14.179,51.263-17.685  c1.117-2.122,2.234-4.246,3.398-6.347c8.453-15.09,18.718-29.177,33.857-39.663C1003.089,523.484,1004.267,533.915,1001.931,544.833  z" class="colorF1CCCD svgShape"/><path fill="#fc9cff" d="M982.589,574.816l-25.728-21.938c8.453-15.092,24.129-47.783,39.523-37.675  C1016.881,528.663,994.164,563.701,982.589,574.816z" class="colorFC9CFF svgShape"/><path fill="#ebbb6a" d="M504.277,541.274c-1.001,10.552-7.119,24.817-7.757,31.427c-13.13-4.442-28.959-5.93-29.376-8.086  l-10.411-48.204C464.4,519.716,489.037,532.232,504.277,541.274z" class="colorEBBB6A svgShape"/><path fill="#f1cccd" d="M453.215,746.331c-2.758,10.273-4.463,19.493-5.366,28.065c-2.324,21.899-1.668,55.619,2.338,76.933  l11.229-1.102c0,0,15.863-57.605,23.36-87.064c1.927-7.474,3.422-14.151,4.2-19.188c4.529-28.746-12.247-110.184-13.324-115.456  l-0.045-0.202l-0.014-0.075l-45.183-6.311C406.405,679.05,434.88,693.417,453.215,746.331z" class="colorF1CCCD svgShape"/><path fill="#4642b8" d="M431.912,699.397c6.376,13.118,14.526,27.39,21.303,46.934c-2.5,9.305-5.347,18.978-8.637,30.255  l39.079,5.459c1.926-7.474,4.54-33.033,5.318-38.07c4.529-28.746-12.247-110.184-13.324-115.456l-0.045-0.202l-0.014-0.075  l-45.183-6.311C415.256,657.964,421.004,676.973,431.912,699.397z" class="color4642B8 svgShape"/><path fill="#3431a3" d="M431.912,699.397c6.376,13.118,14.526,27.39,21.303,46.934c-2.5,9.305-5.347,18.978-8.637,30.255l7.21,1.007  c1.236-11.157,11.093-29.5,14.402-28.911c-2.932-0.725-29.79-53.319-31.833-71.534L431.912,699.397z" class="color3431A3 svgShape"/><path fill="#f1cccd" d="M405.912,864.479l-27.529-31.91c0,0,20.214-31.571,36.57-52.562c3.883-5.024,7.547-9.415,10.677-12.668  c22.399-23.199,34.096-140.118,34.096-140.118h-37.032c-29.032,26.687-21.72,63.432-22.577,99.733  c-0.296,12.582-4.343,24.714-11.138,35.307c-1.368,2.134-2.658,4.295-3.874,6.51c-8.47,15.458-13.493,33.585-18.128,63.361  l-5.733,19.326L405.912,864.479z" class="colorF1CCCD svgShape"/><path fill="#4642b8" d="M383.237,768.141l10.701,4.902l21.744,9.949c3.883-5.022,6.819-12.399,9.949-15.652  c22.399-23.199,36.862-140.579,36.862-140.579l-38.22,0.436l-1.577,0.024c-28.06,25.794-22.169,60.985-22.517,96.089  c-0.141,14.325-4.772,28.308-13.51,39.661C385.386,764.637,384.219,766.346,383.237,768.141z" class="color4642B8 svgShape"/><path fill="#3431a3" d="M383.237,768.141l10.701,4.902c3.471-5.436,8.687-15.761,11.443-22.735c7.28-18.428,2.803-43.454,4.55-78.64  c1.287-25.926,23.2-38.524,23.2-38.524l-8.858-5.946l-1.577,0.024c-28.06,25.794-22.169,60.985-22.517,96.089  c-0.141,14.325-4.772,28.308-13.51,39.661C385.386,764.637,384.219,766.346,383.237,768.141z" class="color3431A3 svgShape"/><path fill="#ffd182" d="M403.888,551.751c0.315,23.345,6.067,63.823,8.251,78.383c0.316,2.11,1.48,3.931,3.131,5.071  c0.898,0.631,1.966,1.068,3.106,1.237c10.459,1.553,20.7,2.403,30.673,2.378c8.979,0,17.739-0.679,26.257-2.159  c3.325-0.583,5.873-3.253,6.237-6.601c1.189-11.017-2.267-35.187-1.709-58.702c0.364-14.875-4.304-52.952-32.082-58.943  l-16.273-0.148c-18.249,4.732-25.893,18.686-27.155,28.44C403.936,543.598,403.815,547.383,403.888,551.751z" class="colorFFD182 svgShape"/><path fill="#4642b8" d="M462.735 847.012c17.282 6.635 36.458 5.952 37.653 21.548l-54.374-1.898c-.639-6.61.46-13.16 3.296-19.651H462.735zM378.383 832.569c13.833 12.301 34.527 20.974 30.147 35.991l-50.214-16.787c1.732-6.411 4.055-16.705 8.998-21.779L378.383 832.569zM441.887 496.175c-5.62 1.738-7.891 4.544-15.079 1.297-10.937-4.941-20.169-23.871-5.645-32.432 1.004-2.997 2.016-4.163 5.844-4.995 3.826-.83 7.75.835 13.026.745 5.275-.091 12.738-5.522 17.338 2.15 4.599 7.671-6.805 13.637-12.52 17.414C439.133 484.131 440.988 490.648 441.887 496.175z" class="color4642B8 svgShape"/><path fill="#f9cbcb" d="M431.248,512.312c5.921,5.921,11.506,7.055,16.504,0.105l-1.407-11.421l-0.587-4.809h-13.102l-0.252,2.982  L431.248,512.312z" class="colorF9CBCB svgShape"/><path fill="#f0b4b4" d="M432.216,501.292c3.238,3.896,12.16,5.024,14.578,3.354l-1.038-8.46l-13.177-5.53L432.216,501.292z" class="colorF0B4B4 svgShape"/><path fill="#f9cbcb" d="M452.274,469.888c2.558,7.21,5.065,23.15-1.054,29.078c-3.873,3.752-17.928,2.301-20.798-8.018  c-3.39-2.455-5.878-8.44-2.755-11.156c2.227-1.935,5.071,3.179,8.955,2.333c1.474-0.321-3.053-10.167,1.546-11.873  C442.77,468.546,447.637,472.242,452.274,469.888z" class="colorF9CBCB svgShape"/><path fill="#8480ff" d="M645.541,615.521l-56.519-11.29c-4.511-0.901-7.438-5.289-6.537-9.8l0,0c0.901-4.511,5.289-7.438,9.8-6.537  l56.52,11.29c4.511,0.901,7.438,5.289,6.537,9.8v0C654.44,613.496,650.052,616.422,645.541,615.521z" class="color8480FF svgShape"/><path fill="#6b67eb" d="M646.499,610.725l-56.52-11.29c-3.671-0.733-6.252-3.784-6.617-7.322c-0.388,0.716-0.71,1.478-0.878,2.319  c-0.901,4.511,2.026,8.899,6.537,9.8l56.52,11.29c4.511,0.901,8.899-2.026,9.8-6.537c0.168-0.841,0.163-1.668,0.08-2.478  C653.725,609.633,650.17,611.458,646.499,610.725z" class="color6B67EB svgShape"/><path fill="#8480ff" d="M630.877,688.934l-56.519-11.29c-4.511-0.901-7.438-5.289-6.537-9.8l0,0c0.901-4.511,5.289-7.438,9.8-6.537  l56.519,11.289c4.511,0.901,7.438,5.289,6.537,9.8l0,0C639.776,686.908,635.388,689.835,630.877,688.934z" class="color8480FF svgShape"/><path fill="#6b67eb" d="M631.835,684.138l-56.52-11.29c-3.671-0.733-6.252-3.784-6.617-7.322c-0.388,0.716-0.71,1.478-0.878,2.319  c-0.901,4.511,2.026,8.899,6.537,9.8l56.52,11.29c4.511,0.901,8.899-2.026,9.8-6.537c0.168-0.841,0.163-1.668,0.079-2.478  C639.061,683.046,635.506,684.871,631.835,684.138z" class="color6B67EB svgShape"/><path fill="#8480ff" d="M444.471,573.98l-50.662-10.12c-8.994-1.797-17.741,4.038-19.538,13.032l-6.256,31.319  c-1.797,8.994,4.038,17.741,13.032,19.538l50.662,10.12c0.806,0.161,1.591-0.362,1.752-1.169l12.178-60.969  C445.8,574.925,445.277,574.141,444.471,573.98z" class="color8480FF svgShape"/><path fill="#6b67eb" d="M444.47,573.98l-24.401-4.874l-7.572,37.906c-2.191,10.971-12.862,18.089-23.834,15.897l-19.105-3.816  c2.24,4.322,6.342,7.629,11.487,8.656l50.663,10.12c0.806,0.161,1.59-0.362,1.751-1.168l12.179-60.969  C445.8,574.925,445.277,574.141,444.47,573.98z" class="color6B67EB svgShape"/><path fill="#8480ff" d="M588.911,556.501l-29.992,150.151c-0.119,0.597-0.286,1.207-0.486,1.766  c-0.277,0.831-0.635,1.625-1.048,2.362c-0.418,0.76-0.891,1.463-1.441,2.107c-0.529,0.649-1.117,1.262-1.752,1.778  c-0.294,0.252-0.61,0.5-0.942,0.721c-0.008,0.043-0.055,0.055-0.081,0.073c-0.26,0.192-0.538,0.358-0.814,0.525  c-0.107,0.089-0.23,0.153-0.328,0.201c-0.324,0.179-0.648,0.358-0.989,0.512c-0.32,0.158-0.661,0.311-1.019,0.44  c-0.529,0.205-1.07,0.362-1.629,0.495c-0.307,0.094-0.63,0.162-0.95,0.208c-0.021-0.004-0.021-0.004-0.021-0.004  c-0.414,0.073-0.801,0.129-1.206,0.158c-0.589,0.06-1.169,0.077-1.761,0.047c-0.286-0.012-0.593-0.03-0.896-0.067  c-0.435-0.043-0.865-0.107-1.313-0.196l-71.761-14.334c-2.089-0.417-4.136-0.937-6.144-1.537  c-32.701-9.769-53.191-43.037-46.369-77.191l9.33-46.711c0.141-0.704,0.302-1.402,0.464-2.102c0.375-1.655,0.81-3.275,1.325-4.857  c0.281-0.964,0.609-1.941,0.976-2.887c0.166-0.498,0.358-1.014,0.545-1.51c0.026-0.016,0.03-0.038,0.039-0.081  c0.213-0.512,0.426-1.023,0.635-1.513c0.891-2.128,1.884-4.214,2.992-6.209c0.234-0.396,0.447-0.797,0.682-1.193  c0.273-0.478,0.541-0.934,0.836-1.408c0.562-0.929,1.168-1.851,1.769-2.75c0.601-0.9,1.24-1.77,1.901-2.635  c0.311-0.448,0.661-0.866,0.989-1.288c0.328-0.423,0.678-0.84,1.027-1.258c0.328-0.423,0.673-0.819,1.044-1.232  c0.349-0.419,0.716-0.811,1.083-1.203c1.078-1.181,2.221-2.349,3.393-3.446c0.439-0.422,0.874-0.823,1.33-1.219  c0.754-0.67,1.505-1.318,2.298-1.958c1.799-1.458,3.671-2.836,5.61-4.111c1.654-1.066,3.342-2.081,5.055-3.003  c0.622-0.341,1.262-0.656,1.906-0.993c0.589-0.282,1.177-0.564,1.786-0.841c0.491-0.235,0.977-0.448,1.484-0.657  c0.124-0.064,0.222-0.111,0.337-0.132l0.004-0.022c10.126-4.296,21.428-6.162,32.957-4.946c2.085,0.217,4.174,0.524,6.263,0.941  l71.761,14.334C585.462,541.357,590.444,548.826,588.911,556.501z" class="color8480FF svgShape"/><path fill="#6b67eb" d="M558.433,708.418c-0.986,2.837-2.748,5.276-5.183,6.968c-5.147,8.054-77.426-8.878-84.594-11.31  c-74.211-25.174-56.033-78.33-38.048-137.428c5.18-17.021,19.787-30.264,36.198-37.154l-0.004,0.022  c-23.945,12.477-28.439,51.46-35.585,85.125C413.697,697.165,503.469,695.644,558.433,708.418z" class="color6B67EB svgShape"/><path fill="#8480ff" d="M527.472 518.198c-9.522-1.902-18.783 4.275-20.685 13.797l-33.673 168.577c-1.902 9.522 4.275 18.783 13.797 20.684 9.522 1.902 18.783-4.275 20.684-13.797l33.673-168.577C543.17 529.361 536.993 520.1 527.472 518.198zM597.896 532.266L597.896 532.266c-9.522-1.902-18.783 4.275-20.685 13.797l-33.673 168.577c-1.902 9.522 4.275 18.783 13.797 20.685l0 0c9.522 1.902 18.783-4.275 20.684-13.797l33.673-168.577C613.595 543.428 607.418 534.168 597.896 532.266z" class="color8480FF svgShape"/><rect width="9.571" height="181.485" x="523.337" y="531.688" fill="#6b67eb" transform="rotate(11.304 528.141 622.288)" class="color6B67EB svgShape"/><rect width="9.571" height="181.485" x="552.05" y="537.423" fill="#6b67eb" transform="rotate(11.304 556.813 627.966)" class="color6B67EB svgShape"/><path fill="#6b67eb" d="M509.203,526.125l-35.546,177.952l-3.177-0.635c-2.089-0.417-4.136-0.937-6.144-1.537l35.426-177.356  c2.085,0.217,4.174,0.524,6.263,0.941L509.203,526.125z" class="color6B67EB svgShape"/><path fill="#f9cbcb" d="M414.366,557.355c0,0,10.613,20.153,21.543,32.315c2.62,2.889,5.236,5.315,7.736,6.925  c17.322,11.128,61.972,14.682,61.972,14.682c12.215,9.878,30.39,9.393,34.896,4.956c7.994-7.948-16.276-3.988-17.278-9.962  c0,0,11.503-3.436,9.476-8.145c-2.002-4.73-22.306,2.454-22.306,2.454c-16.596-11.325-34.029-19.319-51.088-24.155  c-0.976-2.242-1.952-4.482-2.978-6.704c-7.461-15.968-16.838-31.05-31.438-42.838C414.787,535.574,412.809,546.085,414.366,557.355z  " class="colorF9CBCB svgShape"/><path fill="#ebbb6a" d="M431.78,589.272l27.785-20.369c-7.462-15.968-20.946-50.361-37.346-41.24  C400.385,539.806,420.849,577.11,431.78,589.272z" class="colorEBBB6A svgShape"/><path fill="#263182" d="M1205.275 869.749H94.941c-.657 0-1.189-.532-1.189-1.189l0 0c0-.657.532-1.189 1.189-1.189h1110.334c.657 0 1.189.532 1.189 1.189l0 0C1206.464 869.217 1205.932 869.749 1205.275 869.749zM74.704 869.75H27.309c-.657 0-1.189-.532-1.189-1.189l0 0c0-.657.532-1.189 1.189-1.189h47.395c.657 0 1.189.532 1.189 1.189l0 0C75.893 869.217 75.361 869.75 74.704 869.75zM1243.799 869.749h-18.242c-.657 0-1.189-.532-1.189-1.189l0 0c0-.657.532-1.189 1.189-1.189h18.242c.657 0 1.189.532 1.189 1.189l0 0C1244.988 869.217 1244.456 869.749 1243.799 869.749zM1336.691 869.749h-76.73c-.657 0-1.189-.532-1.189-1.189l0 0c0-.657.532-1.189 1.189-1.189h76.73c.657 0 1.189.532 1.189 1.189l0 0C1337.88 869.217 1337.348 869.749 1336.691 869.749z" class="color263182 svgShape"/><path fill="#897aeb" d="M443.897 348.761h20.565c4.479 0 7.833 1.065 10.064 3.196 2.23 2.13 3.345 5.161 3.345 9.094 0 4.041-1.216 7.201-3.646 9.477-2.431 2.276-6.141 3.414-11.129 3.414h-6.773v14.856h-12.426V348.761zM456.323 365.829h3.031c2.385 0 4.06-.414 5.025-1.243.965-.828 1.448-1.888 1.448-3.181 0-1.256-.419-2.322-1.256-3.196-.838-.874-2.413-1.311-4.725-1.311h-3.523V365.829zM492.782 369.189l-10.624-1.12c.4-1.857.978-3.319 1.734-4.383.755-1.065 1.844-1.99 3.263-2.772 1.02-.564 2.421-1.001 4.206-1.311 1.784-.309 3.714-.464 5.789-.464 3.332 0 6.008.187 8.03.56 2.021.373 3.705 1.151 5.052 2.335.947.819 1.693 1.98 2.239 3.481.546 1.502.819 2.936.819 4.302v12.809c0 1.365.086 2.435.259 3.208.173.774.551 1.762 1.134 2.964h-10.433c-.419-.746-.692-1.315-.819-1.707-.128-.391-.255-1.005-.382-1.844-1.457 1.402-2.904 2.404-4.342 3.004-1.967.802-4.251 1.202-6.855 1.202-3.459 0-6.086-.802-7.879-2.404-1.794-1.602-2.69-3.577-2.69-5.926 0-2.203.646-4.015 1.939-5.435 1.293-1.42 3.678-2.475 7.156-3.167 4.169-.837 6.872-1.425 8.111-1.762 1.238-.337 2.549-.779 3.933-1.325 0-1.366-.283-2.322-.847-2.868-.564-.546-1.556-.819-2.977-.819-1.821 0-3.186.292-4.096.874C493.793 367.077 493.219 367.932 492.782 369.189zM502.422 375.033c-1.529.546-3.123 1.03-4.779 1.448-2.257.601-3.687 1.193-4.288 1.775-.619.601-.929 1.284-.929 2.048 0 .874.305 1.588.915 2.144.61.556 1.506.833 2.69.833 1.238 0 2.389-.3 3.455-.901 1.065-.601 1.821-1.334 2.267-2.199.446-.865.669-1.989.669-3.373V375.033zM541.039 359.794h10.405v27.392l.027 1.284c0 1.82-.387 3.555-1.161 5.202-.774 1.648-1.802 2.981-3.086 4.001-1.284 1.02-2.913 1.756-4.889 2.212-1.976.455-4.238.683-6.787.683-5.826 0-9.828-.874-12.003-2.622-2.176-1.748-3.264-4.088-3.264-7.018 0-.365.018-.856.055-1.475l10.788 1.229c.273 1.001.692 1.693 1.256 2.076.819.564 1.848.847 3.086.847 1.602 0 2.8-.429 3.592-1.284.792-.856 1.188-2.349 1.188-4.479v-4.396c-1.092 1.292-2.185 2.23-3.277 2.812-1.712.911-3.56 1.366-5.544 1.366-3.878 0-7.009-1.693-9.395-5.079-1.693-2.404-2.54-5.58-2.54-9.531 0-4.515 1.092-7.957 3.277-10.323 2.185-2.367 5.043-3.551 8.575-3.551 2.257 0 4.119.382 5.585 1.147 1.465.765 2.835 2.031 4.11 3.797V359.794zM530.579 373.859c0 2.094.446 3.645 1.338 4.656.892 1.011 2.066 1.516 3.523 1.516 1.384 0 2.544-.523 3.482-1.571.937-1.046 1.406-2.626 1.406-4.738 0-2.113-.492-3.728-1.474-4.848-.983-1.12-2.185-1.68-3.605-1.68-1.42 0-2.553.515-3.4 1.543C531.002 369.767 530.579 371.474 530.579 373.859zM590.361 377.054h-22.285c.2 1.785.683 3.114 1.448 3.988 1.074 1.256 2.476 1.885 4.206 1.885 1.093 0 2.13-.273 3.113-.819.601-.346 1.247-.956 1.939-1.83l10.952 1.011c-1.676 2.913-3.696 5.003-6.063 6.267-2.367 1.266-5.763 1.898-10.187 1.898-3.842 0-6.864-.542-9.067-1.625-2.203-1.083-4.028-2.804-5.476-5.161-1.448-2.358-2.171-5.13-2.171-8.317 0-4.533 1.451-8.201 4.356-11.005 2.904-2.804 6.913-4.206 12.03-4.206 4.151 0 7.429.628 9.832 1.885 2.404 1.256 4.233 3.077 5.489 5.462 1.256 2.386 1.885 5.49 1.885 9.313V377.054zM579.055 371.729c-.218-2.148-.797-3.687-1.734-4.616-.938-.929-2.171-1.393-3.7-1.393-1.766 0-3.177.702-4.233 2.103-.674.874-1.102 2.176-1.284 3.906H579.055zM614.94 348.761h11.552l15.075 22.15v-22.15h11.661v40.037h-11.661l-14.993-21.983v21.983H614.94V348.761zM659.347 374.377c0-4.424 1.492-8.07 4.479-10.937 2.985-2.868 7.018-4.302 12.098-4.302 5.808 0 10.196 1.684 13.163 5.053 2.385 2.712 3.578 6.053 3.578 10.023 0 4.46-1.48 8.115-4.438 10.964-2.959 2.85-7.051 4.275-12.276 4.275-4.661 0-8.43-1.183-11.307-3.551C661.112 382.971 659.347 379.13 659.347 374.377zM670.489 374.35c0 2.586.523 4.497 1.57 5.736 1.047 1.239 2.362 1.857 3.946 1.857 1.602 0 2.918-.61 3.946-1.83 1.028-1.22 1.543-3.177 1.543-5.871 0-2.513-.519-4.384-1.557-5.613-1.037-1.229-2.321-1.844-3.851-1.844-1.62 0-2.959.624-4.015 1.871C671.017 369.903 670.489 371.801 670.489 374.35zM711.427 348.761v11.033h6.117v8.138h-6.117v10.276c0 1.235.118 2.053.355 2.452.364.619 1.001.928 1.912.928.819 0 1.967-.236 3.441-.709l.819 7.673c-2.749.601-5.317.901-7.701.901-2.768 0-4.807-.355-6.117-1.064-1.311-.709-2.28-1.786-2.908-3.231-.628-1.446-.942-3.787-.942-7.024v-10.201h-4.096v-8.138h4.096v-5.325L711.427 348.761zM742.288 348.761h30.588v8.603h-18.161v6.992h15.512v8.084h-15.512v16.358h-12.426V348.761zM775.524 374.377c0-4.424 1.492-8.07 4.479-10.937 2.985-2.868 7.018-4.302 12.098-4.302 5.808 0 10.196 1.684 13.163 5.053 2.385 2.712 3.578 6.053 3.578 10.023 0 4.46-1.48 8.115-4.438 10.964-2.959 2.85-7.051 4.275-12.276 4.275-4.661 0-8.43-1.183-11.307-3.551C777.289 382.971 775.524 379.13 775.524 374.377zM786.666 374.35c0 2.586.523 4.497 1.57 5.736 1.047 1.239 2.362 1.857 3.946 1.857 1.602 0 2.918-.61 3.946-1.83 1.029-1.22 1.543-3.177 1.543-5.871 0-2.513-.519-4.384-1.557-5.613-1.037-1.229-2.321-1.844-3.851-1.844-1.62 0-2.959.624-4.015 1.871C787.194 369.903 786.666 371.801 786.666 374.35zM844.755 388.797h-10.378V384.1c-1.547 1.931-3.109 3.305-4.684 4.124-1.575.819-3.509 1.229-5.803 1.229-3.059 0-5.457-.915-7.196-2.745-1.739-1.83-2.608-4.646-2.608-8.452v-18.462h11.17v15.949c0 1.822.337 3.114 1.011 3.878.673.765 1.62 1.147 2.84 1.147 1.329 0 2.417-.509 3.264-1.529.846-1.019 1.269-2.849 1.269-5.489v-13.956h11.115V388.797zM851.501 359.794h10.351v4.725c1.547-1.93 3.114-3.309 4.697-4.138 1.584-.829 3.514-1.243 5.79-1.243 3.077 0 5.485.915 7.224 2.745 1.738 1.83 2.608 4.656 2.608 8.48v18.434H871v-15.949c0-1.82-.337-3.109-1.011-3.865-.673-.755-1.62-1.134-2.84-1.134-1.348 0-2.44.511-3.277 1.53-.838 1.02-1.256 2.85-1.256 5.489v13.929h-11.115V359.794zM919.339 348.761v40.037h-10.405v-4.288c-1.456 1.822-2.786 3.051-3.987 3.687-1.602.837-3.386 1.256-5.353 1.256-3.951 0-6.969-1.502-9.053-4.507-2.085-3.003-3.127-6.654-3.127-10.95 0-4.807 1.151-8.485 3.455-11.033 2.303-2.55 5.23-3.824 8.78-3.824 1.73 0 3.3.291 4.711.874 1.411.583 2.663 1.457 3.755 2.622v-13.874H919.339zM908.196 374.214c0-2.276-.483-3.974-1.447-5.094-.965-1.12-2.185-1.68-3.66-1.68-1.293 0-2.376.538-3.25 1.611-.874 1.075-1.311 2.877-1.311 5.407 0 2.368.451 4.102 1.352 5.203.901 1.102 2.016 1.652 3.345 1.652 1.42 0 2.604-.556 3.551-1.666C907.723 378.538 908.196 376.726 908.196 374.214zM926.14 377.655h11.88v11.143h-11.88V377.655zM944.765 377.655h11.88v11.143h-11.88V377.655zM963.39 377.655h11.88v11.143h-11.88V377.655z" class="color897AEB svgShape"/><path fill="#fec9ff" d="M666.951 551.078l1.685 19.05c.462 5.222 8.551 4.298 8.089-.922l-1.685-19.05C674.578 544.935 666.489 545.859 666.951 551.078zM725.297 512.391l-6.774 62.173c-.567 5.2 7.477 6.476 8.045 1.261l6.774-62.173C733.909 508.452 725.865 507.176 725.297 512.391zM785.754 550.081c-6.134 8.81-12.269 17.62-18.404 26.431-2.983 4.285 3.371 9.378 6.372 5.068 6.135-8.81 12.269-17.62 18.403-26.431C795.109 550.864 788.755 545.771 785.754 550.081zM660.439 702.447c-2.574 8.165-5.148 16.329-7.721 24.494-1.562 4.954 5.876 8.28 7.45 3.287 2.574-8.165 5.148-16.33 7.721-24.495C669.451 700.78 662.013 697.454 660.439 702.447zM704.442 709.29l-8.012 53.497c-.777 5.187 7.269 6.446 8.045 1.261l8.012-53.497C713.264 705.364 705.218 704.106 704.442 709.29zM767.157 741.674c-3.283-10.174-6.566-20.348-9.849-30.522-1.607-4.982-9.16-1.935-7.555 3.04 3.283 10.174 6.566 20.348 9.849 30.522C761.21 749.695 768.762 746.648 767.157 741.674z" class="colorFEC9FF svgShape"/></svg>